<svg width="33" height="33" viewBox="0 0 33 33" fill="none" xmlns="http://www.w3.org/2000/svg">
<g id="facebook">
<g id="Vector">
<path d="M24.75 2.75H20.625C18.8016 2.75 17.053 3.47433 15.7636 4.76364C14.4743 6.05295 13.75 7.80164 13.75 9.625V13.75H9.625V19.25H13.75V30.25H19.25V19.25H23.375L24.75 13.75H19.25V9.625C19.25 9.26033 19.3949 8.91059 19.6527 8.65273C19.9106 8.39487 20.2603 8.25 20.625 8.25H24.75V2.75Z" stroke="#101010" stroke-width="2" stroke-linecap="round" stroke-linejoin="round"/>
<path d="M24.75 2.75H20.625C18.8016 2.75 17.053 3.47433 15.7636 4.76364C14.4743 6.05295 13.75 7.80164 13.75 9.625V13.75H9.625V19.25H13.75V30.25H19.25V19.25H23.375L24.75 13.75H19.25V9.625C19.25 9.26033 19.3949 8.91059 19.6527 8.65273C19.9106 8.39487 20.2603 8.25 20.625 8.25H24.75V2.75Z" stroke="black" stroke-opacity="0.2" stroke-width="2" stroke-linecap="round" stroke-linejoin="round"/>
</g>
</g>
</svg>
