<svg width="33" height="33" viewBox="0 0 33 33" fill="none" xmlns="http://www.w3.org/2000/svg">
<g id="instagram" clip-path="url(#clip0_1610_2295)">
<g id="Vector">
<path d="M23.375 2.75H9.625C5.82804 2.75 2.75 5.82804 2.75 9.625V23.375C2.75 27.172 5.82804 30.25 9.625 30.25H23.375C27.172 30.25 30.25 27.172 30.25 23.375V9.625C30.25 5.82804 27.172 2.75 23.375 2.75Z" stroke="#101010" stroke-width="2" stroke-linecap="round" stroke-linejoin="round"/>
<path d="M23.375 2.75H9.625C5.82804 2.75 2.75 5.82804 2.75 9.625V23.375C2.75 27.172 5.82804 30.25 9.625 30.25H23.375C27.172 30.25 30.25 27.172 30.25 23.375V9.625C30.25 5.82804 27.172 2.75 23.375 2.75Z" stroke="black" stroke-opacity="0.2" stroke-width="2" stroke-linecap="round" stroke-linejoin="round"/>
</g>
<g id="Vector_2">
<path d="M22 15.6337C22.1697 16.778 21.9742 17.9467 21.4414 18.9736C20.9086 20.0004 20.0656 20.8331 19.0322 21.3532C17.9989 21.8733 16.8279 22.0544 15.6857 21.8706C14.5435 21.6868 13.4884 21.1475 12.6704 20.3295C11.8524 19.5115 11.3131 18.4564 11.1293 17.3142C10.9455 16.1721 11.1266 15.001 11.6467 13.9677C12.1668 12.9344 12.9995 12.0913 14.0263 11.5585C15.0532 11.0257 16.2219 10.8302 17.3662 10.9999C18.5335 11.173 19.6142 11.7169 20.4486 12.5513C21.283 13.3858 21.8269 14.4664 22 15.6337Z" stroke="#101010" stroke-width="2" stroke-linecap="round" stroke-linejoin="round"/>
<path d="M22 15.6337C22.1697 16.778 21.9742 17.9467 21.4414 18.9736C20.9086 20.0004 20.0656 20.8331 19.0322 21.3532C17.9989 21.8733 16.8279 22.0544 15.6857 21.8706C14.5435 21.6868 13.4884 21.1475 12.6704 20.3295C11.8524 19.5115 11.3131 18.4564 11.1293 17.3142C10.9455 16.1721 11.1266 15.001 11.6467 13.9677C12.1668 12.9344 12.9995 12.0913 14.0263 11.5585C15.0532 11.0257 16.2219 10.8302 17.3662 10.9999C18.5335 11.173 19.6142 11.7169 20.4486 12.5513C21.283 13.3858 21.8269 14.4664 22 15.6337Z" stroke="black" stroke-opacity="0.2" stroke-width="2" stroke-linecap="round" stroke-linejoin="round"/>
</g>
</g>
<defs>
<clipPath id="clip0_1610_2295">
<rect width="33" height="33" fill="white"/>
</clipPath>
</defs>
</svg>
