<svg width="33" height="33" viewBox="0 0 33 33" fill="none" xmlns="http://www.w3.org/2000/svg">
<g id="youtube">
<g id="Vector">
<path d="M30.9925 8.8275C30.8292 8.17494 30.4965 7.57704 30.0281 7.09418C29.5598 6.61133 28.9723 6.26063 28.325 6.0775C25.96 5.5 16.5 5.5 16.5 5.5C16.5 5.5 7.03999 5.5 4.67499 6.1325C4.02771 6.31563 3.44021 6.66633 2.97184 7.14918C2.50348 7.63204 2.17083 8.22994 2.00749 8.8825C1.57466 11.2826 1.36294 13.7174 1.37499 16.1563C1.35956 18.6134 1.5713 21.0668 2.00749 23.485C2.18756 24.1173 2.52766 24.6925 2.99494 25.1549C3.46222 25.6174 4.04087 25.9515 4.67499 26.125C7.03999 26.7575 16.5 26.7575 16.5 26.7575C16.5 26.7575 25.96 26.7575 28.325 26.125C28.9723 25.9419 29.5598 25.5912 30.0281 25.1083C30.4965 24.6255 30.8292 24.0276 30.9925 23.375C31.422 20.9929 31.6337 18.5767 31.625 16.1563C31.6404 13.6991 31.4287 11.2457 30.9925 8.8275Z" stroke="#101010" stroke-width="2" stroke-linecap="round" stroke-linejoin="round"/>
<path d="M30.9925 8.8275C30.8292 8.17494 30.4965 7.57704 30.0281 7.09418C29.5598 6.61133 28.9723 6.26063 28.325 6.0775C25.96 5.5 16.5 5.5 16.5 5.5C16.5 5.5 7.03999 5.5 4.67499 6.1325C4.02771 6.31563 3.44021 6.66633 2.97184 7.14918C2.50348 7.63204 2.17083 8.22994 2.00749 8.8825C1.57466 11.2826 1.36294 13.7174 1.37499 16.1563C1.35956 18.6134 1.5713 21.0668 2.00749 23.485C2.18756 24.1173 2.52766 24.6925 2.99494 25.1549C3.46222 25.6174 4.04087 25.9515 4.67499 26.125C7.03999 26.7575 16.5 26.7575 16.5 26.7575C16.5 26.7575 25.96 26.7575 28.325 26.125C28.9723 25.9419 29.5598 25.5912 30.0281 25.1083C30.4965 24.6255 30.8292 24.0276 30.9925 23.375C31.422 20.9929 31.6337 18.5767 31.625 16.1563C31.6404 13.6991 31.4287 11.2457 30.9925 8.8275Z" stroke="black" stroke-opacity="0.2" stroke-width="2" stroke-linecap="round" stroke-linejoin="round"/>
</g>
<g id="Vector_2">
<path d="M13.4062 20.6524L21.3125 16.1562L13.4062 11.6599V20.6524Z" stroke="#101010" stroke-width="2" stroke-linecap="round" stroke-linejoin="round"/>
<path d="M13.4062 20.6524L21.3125 16.1562L13.4062 11.6599V20.6524Z" stroke="black" stroke-opacity="0.2" stroke-width="2" stroke-linecap="round" stroke-linejoin="round"/>
</g>
</g>
</svg>
