<svg xmlns="http://www.w3.org/2000/svg" fill="none" viewBox="0 0 64 64" id="Profile"><path fill="#333286" fill-rule="evenodd" d="M32 10.667c-5.608 0-10.154 4.546-10.154 10.153 0 5.608 4.546 10.154 10.154 10.154s10.154-4.546 10.154-10.154c0-5.607-4.546-10.153-10.154-10.153ZM19.18 20.82C19.18 13.74 24.92 8 32 8s12.82 5.74 12.82 12.82c0 7.081-5.74 12.821-12.82 12.821s-12.82-5.74-12.82-12.82Z" clip-rule="evenodd" class="color2b3151 svgShape"></path><path fill="#333286" fill-rule="evenodd" d="M32 34.667c-11.86 0-21.333 9.029-21.333 20a1.333 1.333 0 0 1-2.667 0C8 42.073 18.823 32 32 32c13.178 0 24 10.073 24 22.667a1.333 1.333 0 0 1-2.667 0c0-10.971-9.474-20-21.333-20Z" clip-rule="evenodd" class="color2b3151 svgShape"></path></svg>